<svg xmlns="http://www.w3.org/2000/svg" width="14.164" height="14.164" viewBox="0 0 14.164 14.164">
  <g id="Group_40012" data-name="Group 40012" transform="translate(-8947.801 -4347.8)">
    <path id="Path_60215" data-name="Path 60215" d="M155.452,78.566a6.882,6.882,0,1,1-6.882,6.882A6.884,6.884,0,0,1,155.452,78.566Zm0,.834a6.048,6.048,0,1,0,6.048,6.048A6.05,6.05,0,0,0,155.452,79.4Z" transform="translate(8799.431 4269.434)" fill="#006ef3" stroke="#006ef3" stroke-width="0.4"/>
    <path id="Path_60216" data-name="Path 60216" d="M155.452,83.939a.677.677,0,1,1,.677-.677A.676.676,0,0,1,155.452,83.939Zm.417,4.376a.417.417,0,0,1-.834,0v-3.2a.417.417,0,0,1,.834,0Z" transform="translate(8799.431 4269.434)" fill="#006ef3" stroke="#006ef3" stroke-width="0.2"/>
  </g>
</svg>
