<svg xmlns="http://www.w3.org/2000/svg" width="13.75" height="22" viewBox="0 0 13.75 22">
  <g id="Group_16474" data-name="Group 16474" transform="translate(-146 -140)">
    <path id="Path_28189" data-name="Path 28189" d="M151.875,162A6.882,6.882,0,0,1,145,155.125V145.5a.917.917,0,0,1,1.833,0v9.625a5.042,5.042,0,0,0,10.083,0V145.042a3.208,3.208,0,0,0-6.417,0v9.167a1.375,1.375,0,0,0,2.75,0V145.5a.917.917,0,0,1,1.833,0v8.708a3.208,3.208,0,0,1-6.417,0v-9.167a5.042,5.042,0,0,1,10.083,0v10.083A6.882,6.882,0,0,1,151.875,162Zm0,0" transform="translate(1)" fill="#9fa0a3"/>
  </g>
</svg>
