<svg width="20" height="24" viewBox="0 0 20 24" fill="none" xmlns="http://www.w3.org/2000/svg">
<path d="M11.512 23.288C9.336 23.288 7.42667 22.8187 5.784 21.88C4.16267 20.9413 2.91467 19.5973 2.04 17.848C1.16533 16.0987 0.728 14.0507 0.728 11.704C0.728 9.35733 1.16533 7.32 2.04 5.592C2.91467 3.84267 4.16267 2.49867 5.784 1.56C7.42667 0.621332 9.336 0.151999 11.512 0.151999C12.92 0.151999 14.2427 0.365332 15.48 0.792C16.7173 1.19733 17.816 1.79467 18.776 2.584C19.0533 2.79733 19.2453 3.02133 19.352 3.256C19.4587 3.49067 19.512 3.77867 19.512 4.12C19.512 4.58933 19.384 4.984 19.128 5.304C18.872 5.624 18.5627 5.784 18.2 5.784C17.7733 5.784 17.336 5.63467 16.888 5.336C15.9707 4.65333 15.1173 4.184 14.328 3.928C13.5387 3.65067 12.664 3.512 11.704 3.512C9.48533 3.512 7.8 4.20533 6.648 5.592C5.51733 6.97867 4.952 9.016 4.952 11.704C4.952 14.4133 5.51733 16.4613 6.648 17.848C7.8 19.2347 9.48533 19.928 11.704 19.928C12.6213 19.928 13.464 19.7893 14.232 19.512C15.0213 19.2347 15.9067 18.7653 16.888 18.104C17.1013 17.976 17.3147 17.8693 17.528 17.784C17.7413 17.6987 17.9653 17.656 18.2 17.656C18.5627 17.656 18.872 17.816 19.128 18.136C19.384 18.456 19.512 18.8507 19.512 19.32C19.512 19.64 19.4587 19.928 19.352 20.184C19.2453 20.4187 19.0533 20.6427 18.776 20.856C17.816 21.6453 16.7173 22.2533 15.48 22.68C14.2427 23.0853 12.92 23.288 11.512 23.288Z" fill="white"/>
<path d="M5.784 21.88L5.53348 22.3127L5.53593 22.3141L5.784 21.88ZM2.04 17.848L2.48721 17.6244L2.04 17.848ZM2.04 5.592L2.48611 5.81781L2.48721 5.81561L2.04 5.592ZM5.784 1.56L5.53593 1.12587L5.53348 1.12729L5.784 1.56ZM15.48 0.792L15.317 1.26474L15.3243 1.26715L15.48 0.792ZM18.776 2.584L18.4584 2.97021L18.4647 2.97537L18.4711 2.98031L18.776 2.584ZM19.352 3.256L19.8072 3.0491V3.0491L19.352 3.256ZM19.128 5.304L18.7376 4.99165V4.99165L19.128 5.304ZM16.888 5.336L16.5895 5.73711L16.5999 5.74484L16.6107 5.75202L16.888 5.336ZM14.328 3.928L14.1622 4.39987L14.1737 4.40361L14.328 3.928ZM6.648 5.592L6.26339 5.27248L6.26049 5.27603L6.648 5.592ZM6.648 17.848L6.26047 18.164L6.2634 18.1675L6.648 17.848ZM14.232 19.512L14.0663 19.0403L14.0622 19.0417L14.232 19.512ZM16.888 18.104L16.6308 17.6753L16.6195 17.682L16.6086 17.6894L16.888 18.104ZM17.528 17.784L17.7137 18.2482L17.7137 18.2482L17.528 17.784ZM19.128 18.136L18.7376 18.4483L19.128 18.136ZM19.352 20.184L19.8072 20.3909L19.8105 20.3837L19.8135 20.3763L19.352 20.184ZM18.776 20.856L18.4711 20.4597L18.4647 20.4646L18.4584 20.4698L18.776 20.856ZM15.48 22.68L15.6357 23.1552L15.643 23.1527L15.48 22.68ZM11.512 22.788C9.40978 22.788 7.58847 22.3353 6.03207 21.4459L5.53593 22.3141C7.26486 23.3021 9.26222 23.788 11.512 23.788V22.788ZM6.03452 21.4473C4.50162 20.5598 3.32019 19.2904 2.48721 17.6244L1.59279 18.0716C2.50914 19.9043 3.82371 21.3228 5.53348 22.3127L6.03452 21.4473ZM2.48721 17.6244C1.65353 15.957 1.228 13.9884 1.228 11.704H0.228C0.228 14.1129 0.677136 16.2403 1.59279 18.0716L2.48721 17.6244ZM1.228 11.704C1.228 9.41939 1.6536 7.46251 2.48611 5.81781L1.59389 5.36619C0.677066 7.17749 0.228 9.29528 0.228 11.704H1.228ZM2.48721 5.81561C3.32019 4.14965 4.50162 2.88018 6.03452 1.99271L5.53348 1.12729C3.82371 2.11715 2.50914 3.53568 1.59279 5.36839L2.48721 5.81561ZM6.03207 1.99412C7.58847 1.10475 9.40978 0.651999 11.512 0.651999V-0.348001C9.26222 -0.348001 7.26486 0.137917 5.53593 1.12588L6.03207 1.99412ZM11.512 0.651999C12.8687 0.651999 14.136 0.857425 15.317 1.26469L15.643 0.319313C14.3494 -0.12676 12.9713 -0.348001 11.512 -0.348001V0.651999ZM15.3243 1.26715C16.5055 1.65409 17.5487 2.22219 18.4584 2.97021L19.0936 2.19779C18.0833 1.36715 16.9292 0.74058 15.6357 0.316845L15.3243 1.26715ZM18.4711 2.98031C18.7057 3.16077 18.8339 3.32454 18.8968 3.4629L19.8072 3.0491C19.6567 2.71812 19.4009 2.43389 19.0809 2.18769L18.4711 2.98031ZM18.8968 3.4629C18.966 3.61514 19.012 3.82801 19.012 4.12H20.012C20.012 3.72933 19.9513 3.36619 19.8072 3.0491L18.8968 3.4629ZM19.012 4.12C19.012 4.49314 18.9125 4.77297 18.7376 4.99165L19.5184 5.61635C19.8555 5.19503 20.012 4.68552 20.012 4.12H19.012ZM18.7376 4.99165C18.5625 5.21049 18.3898 5.284 18.2 5.284V6.284C18.7356 6.284 19.1815 6.03751 19.5184 5.61635L18.7376 4.99165ZM18.2 5.284C17.895 5.284 17.5527 5.17821 17.1653 4.91997L16.6107 5.75202C17.1193 6.09112 17.6516 6.284 18.2 6.284V5.284ZM17.1865 4.93488C16.2408 4.23107 15.3389 3.73021 14.4823 3.45239L14.1737 4.40361C14.8958 4.63779 15.7006 5.07559 16.5895 5.73711L17.1865 4.93488ZM14.4937 3.45627C13.6439 3.15769 12.7123 3.012 11.704 3.012V4.012C12.6157 4.012 13.4334 4.14364 14.1623 4.39973L14.4937 3.45627ZM11.704 3.012C9.37423 3.012 7.53203 3.74544 6.2634 5.27249L7.0326 5.91151C8.06797 4.66523 9.59644 4.012 11.704 4.012V3.012ZM6.26049 5.27603C5.02838 6.78711 4.452 8.95637 4.452 11.704H5.452C5.452 9.07563 6.00628 7.17023 7.03551 5.90797L6.26049 5.27603ZM4.452 11.704C4.452 14.4718 5.02791 16.6523 6.26049 18.164L7.03551 17.532C6.00676 16.2704 5.452 14.3548 5.452 11.704H4.452ZM6.2634 18.1675C7.53203 19.6946 9.37423 20.428 11.704 20.428V19.428C9.59644 19.428 8.06797 18.7748 7.0326 17.5285L6.2634 18.1675ZM11.704 20.428C12.6721 20.428 13.5731 20.2815 14.4018 19.9823L14.0622 19.0417C13.3549 19.2971 12.5705 19.428 11.704 19.428V20.428ZM14.3977 19.9837C15.24 19.6878 16.1641 19.1948 17.1674 18.5186L16.6086 17.6894C15.6492 18.3359 14.8027 18.7815 14.0663 19.0403L14.3977 19.9837ZM17.1452 18.5327C17.3376 18.4173 17.5271 18.3229 17.7137 18.2482L17.3423 17.3198C17.1023 17.4158 16.8651 17.5347 16.6308 17.6753L17.1452 18.5327ZM17.7137 18.2482C17.8667 18.187 18.0276 18.156 18.2 18.156V17.156C17.9031 17.156 17.616 17.2103 17.3423 17.3198L17.7137 18.2482ZM18.2 18.156C18.3898 18.156 18.5625 18.2295 18.7376 18.4483L19.5184 17.8237C19.1815 17.4025 18.7356 17.156 18.2 17.156V18.156ZM18.7376 18.4483C18.9125 18.667 19.012 18.9469 19.012 19.32H20.012C20.012 18.7545 19.8555 18.245 19.5184 17.8237L18.7376 18.4483ZM19.012 19.32C19.012 19.584 18.9681 19.8053 18.8905 19.9917L19.8135 20.3763C19.9492 20.0507 20.012 19.696 20.012 19.32H19.012ZM18.8968 19.9771C18.8339 20.1155 18.7057 20.2792 18.4711 20.4597L19.0809 21.2523C19.4009 21.0061 19.6567 20.7219 19.8072 20.3909L18.8968 19.9771ZM18.4584 20.4698C17.5468 21.2194 16.5011 21.799 15.317 22.2073L15.643 23.1527C16.9336 22.7077 18.0852 22.0713 19.0936 21.2422L18.4584 20.4698ZM15.3243 22.2048C14.1412 22.5924 12.8714 22.788 11.512 22.788V23.788C12.9686 23.788 14.3442 23.5782 15.6357 23.1552L15.3243 22.2048Z" fill="white"/>
</svg>
