<svg xmlns="http://www.w3.org/2000/svg" width="18.91" height="18.946" viewBox="0 0 18.91 18.946">
  <path id="Path_60027" data-name="Path 60027" d="M-486.075,500.442a7.53,7.53,0,0,0,4.536,4.535,1.662,1.662,0,0,0,1.919-1.047h0a1.624,1.624,0,0,1,2.7-.611l2.442,2.442a1.742,1.742,0,0,1,0,2.355l-1.657,1.657c-1.744,1.745-6.367-.174-10.466-4.274s-5.931-8.722-4.274-10.466l1.657-1.657a1.742,1.742,0,0,1,2.355,0l2.442,2.442a1.624,1.624,0,0,1-.61,2.7h0A1.581,1.581,0,0,0-486.075,500.442Z" transform="translate(492.152 -492.145)" fill="none" stroke="#006ef3" stroke-width="1.3"/>
</svg>
