<svg xmlns="http://www.w3.org/2000/svg" xmlns:xlink="http://www.w3.org/1999/xlink" width="93" height="93" viewBox="0 0 93 93">
  <defs>
    <filter id="pexels-photo-417473" x="0" y="0" width="93" height="93" filterUnits="userSpaceOnUse">
      <feOffset input="SourceAlpha"/>
      <feGaussianBlur stdDeviation="10" result="blur"/>
      <feFlood flood-opacity="0.102"/>
      <feComposite operator="in" in2="blur"/>
      <feComposite in="SourceGraphic"/>
    </filter>
  </defs>
  <g id="Group_22742" data-name="Group 22742" transform="translate(-142 -157)">
    <g transform="matrix(1, 0, 0, 1, 142, 157)" filter="url(#pexels-photo-417473)">
      <rect id="pexels-photo-417473-2" data-name="pexels-photo-417473" width="33" height="33" rx="16.5" transform="translate(30 30)" fill="#fff"/>
    </g>
    <g id="Group_22741" data-name="Group 22741">
      <path id="Stroke_1" data-name="Stroke 1" d="M15.638,18H4.363A4.365,4.365,0,0,1,0,13.642V7.713A4.339,4.339,0,0,1,4.312,3.357l.078,0a.213.213,0,0,0,.165-.119L5.046,2.2l.385-.789A2.425,2.425,0,0,1,7.646,0h4.707a2.422,2.422,0,0,1,2.215,1.408c.058.113.128.255.234.473l.644,1.353a.223.223,0,0,0,.212.122l.212.005A4.356,4.356,0,0,1,20,7.713v5.929A4.365,4.365,0,0,1,15.638,18ZM7.657,1.5a.93.93,0,0,0-.888.59c-.06.118-.134.266-.224.454L5.911,3.875a1.724,1.724,0,0,1-1.378.97l-.17.009A2.864,2.864,0,0,0,1.5,7.713v5.929A2.864,2.864,0,0,0,4.363,16.5H15.638A2.864,2.864,0,0,0,18.5,13.642V7.713a2.85,2.85,0,0,0-2.69-2.855l-.324-.011a1.719,1.719,0,0,1-1.4-.974l-.7-1.465-.16-.321a.926.926,0,0,0-.883-.589Z" transform="translate(179 195)" fill="#006ef3"/>
      <path id="Stroke_3" data-name="Stroke 3" d="M3.93,7.86h0A3.937,3.937,0,0,1,0,3.934,3.861,3.861,0,0,1,1.137,1.169,3.908,3.908,0,0,1,3.928,0l.207.005a3.93,3.93,0,0,1-.2,7.854Zm0-6.361L3.772,1.5A2.449,2.449,0,0,0,1.5,3.929,2.426,2.426,0,1,0,3.931,1.5Z" transform="translate(185.071 201.395)" fill="#006ef3"/>
      <path id="Fill_5" data-name="Fill 5" d="M.9,1.993a1.085,1.085,0,0,1-.3-.078,1.008,1.008,0,0,1-.321-.221A1.019,1.019,0,0,1,0,1,.97.97,0,0,1,.082.606,1.016,1.016,0,0,1,.318.264,1.144,1.144,0,0,1,.622.07,1.023,1.023,0,0,1,1.7.285a.961.961,0,0,1,.19.261L1.917.6A.972.972,0,0,1,2,1a1.015,1.015,0,0,1-.292.7,1,1,0,0,1-.609.289L1,2Z" transform="translate(193 200.993)" fill="#006ef3"/>
    </g>
  </g>
</svg>
