<svg xmlns="http://www.w3.org/2000/svg" width="41" height="41" viewBox="0 0 41 41">
  <g id="Group_40040" data-name="Group 40040" transform="translate(-36 -132)">
    <rect id="Rectangle_11432" data-name="Rectangle 11432" width="41" height="41" rx="8" transform="translate(36 132)" fill="#006ef3" opacity="0.04"/>
    <g id="noun-comment-1215669" transform="translate(-65.203 90.601)">
      <path id="Path_60288" data-name="Path 60288" d="M116.752,69.425a7.1,7.1,0,0,0,2.084-.3,5.568,5.568,0,0,0,9.543-2.537,8.151,8.151,0,1,0-8.667-11.657,7.55,7.55,0,1,0-2.959,14.5Zm0-13.891a6.194,6.194,0,0,1,2.99.755.547.547,0,0,0,.483.03.653.653,0,0,0,.362-.332,6.933,6.933,0,0,1,13.378,2.567,6.982,6.982,0,0,1-6.161,6.916.641.641,0,0,0-.543.513,4.375,4.375,0,0,1-7.761,2.084.63.63,0,0,0-.483-.242.592.592,0,0,0-.211.03,5.884,5.884,0,0,1-2.054.363,6.342,6.342,0,0,1,0-12.683Z" fill="#006ef3"/>
      <path id="Path_60289" data-name="Path 60289" d="M473.04,394.72a2.718,2.718,0,1,0-2.718,2.718A2.706,2.706,0,0,0,473.04,394.72Zm-4.228,0a1.51,1.51,0,1,1,1.51,1.51A1.5,1.5,0,0,1,468.812,394.72Z" transform="translate(-339.075 -323.181)" fill="#006ef3"/>
      <path id="Path_60290" data-name="Path 60290" d="M221.116,225.36A1.359,1.359,0,1,1,219.757,224a1.359,1.359,0,0,1,1.359,1.359" transform="translate(-103.307 -164.24)" fill="#006ef3"/>
      <path id="Path_60291" data-name="Path 60291" d="M327.52,225.36A1.359,1.359,0,1,1,326.161,224a1.359,1.359,0,0,1,1.359,1.359" transform="translate(-203.974 -164.24)" fill="#006ef3"/>
      <path id="Path_60292" data-name="Path 60292" d="M433.916,225.36A1.359,1.359,0,1,1,432.557,224a1.359,1.359,0,0,1,1.359,1.359" transform="translate(-304.632 -164.24)" fill="#006ef3"/>
    </g>
  </g>
</svg>
