<svg xmlns="http://www.w3.org/2000/svg" width="19.647" height="19.657" viewBox="0 0 19.647 19.657">
  <g id="Group_40056" data-name="Group 40056" transform="translate(-70.075 -4.011)">
    <path id="Path_28001" data-name="Path 28001" d="M188.842,139.512H180.77a.677.677,0,1,0,0,1.355h8.072a.677.677,0,0,0,0-1.355Z" transform="translate(-105.127 -129.477)" fill="#242424"/>
    <path id="Path_28002" data-name="Path 28002" d="M188.842,202.183H180.77a.677.677,0,1,0,0,1.355h8.072a.677.677,0,1,0,0-1.355Z" transform="translate(-105.127 -189.362)" fill="#242424"/>
    <path id="Path_28003" data-name="Path 28003" d="M185.735,264.852H180.77a.677.677,0,0,0,0,1.355h4.965a.677.677,0,0,0,0-1.355Z" transform="translate(-105.127 -249.245)" fill="#242424"/>
    <g id="Group_16403" data-name="Group 16403" transform="translate(70.075 4.011)">
      <path id="Path_28004" data-name="Path 28004" d="M89.64,21.7,88.318,17.85A9.625,9.625,0,0,0,79.835,4.012,9.623,9.623,0,0,0,70.278,11.6a10.694,10.694,0,0,0-.09,3.6l0-.005a9.667,9.667,0,0,0,6.483,7.567,10.987,10.987,0,0,0,3.249.485l.007-.009a9.644,9.644,0,0,0,3.973-.973l3.847,1.322a1.5,1.5,0,0,0,.487.082,1.488,1.488,0,0,0,1.4-1.971Zm-1.313.576a.123.123,0,0,1-.136.031l-4.119-1.415a.678.678,0,0,0-.537.042,8.276,8.276,0,0,1-3.843.954H79.68a8.292,8.292,0,0,1-8.259-8.126,8.26,8.26,0,0,1,8.393-8.393,8.262,8.262,0,0,1,7.171,12.115.677.677,0,0,0-.042.537l1.415,4.119A.123.123,0,0,1,88.327,22.273Z" transform="translate(-70.075 -4.011)" fill="#242424"/>
    </g>
  </g>
</svg>
