<svg xmlns="http://www.w3.org/2000/svg" width="13.764" height="13.763" viewBox="0 0 13.764 13.763">
  <g id="Group_39985" data-name="Group 39985" transform="translate(-1420.979 -1252)">
    <path id="Path_60220" data-name="Path 60220" d="M89.822,31.857a.975.975,0,0,0,1.209,1.209l1.985-.576A6.882,6.882,0,1,0,90.4,29.874Zm2.229-9.707a6.142,6.142,0,1,1,1.2,9.62.37.37,0,0,0-.3-.037l-2.133.623a.235.235,0,0,1-.3-.3l.62-2.136a.37.37,0,0,0-.037-.3,6.133,6.133,0,0,1,.94-7.478Z" transform="translate(1331.469 1232.388)" fill="#006ef3"/>
    <g id="Group_39985-2" data-name="Group 39985" transform="translate(1423.463 1255.181)">
      <path id="Path_60221" data-name="Path 60221" d="M187.773,152.63a2.9,2.9,0,0,0,3.071-.663l.348-.348a.928.928,0,0,0-.253-1.492l-1.841-.888a.37.37,0,0,0-.428.077l-.573.592h-.015a3.019,3.019,0,0,1-1.689-1.686l.592-.592a.37.37,0,0,0,.071-.422l-.888-1.841h0a.928.928,0,0,0-1.492-.253l-.345.34a2.908,2.908,0,0,0-.666,3.068,7,7,0,0,0,4.107,4.107Zm-2.916-6.649.348-.348a.188.188,0,0,1,.3.052l.778,1.606-.437.437a.684.684,0,0,0-.148.73,3.761,3.761,0,0,0,2.11,2.136l.043.016a.693.693,0,0,0,.758-.164l.407-.423,1.6.771h0a.188.188,0,0,1,.052.3l-.348.348a2.167,2.167,0,0,1-2.285.5,6.264,6.264,0,0,1-3.67-3.67,2.167,2.167,0,0,1,.5-2.287Z" transform="translate(-183.483 -144.715)" fill="#006ef3"/>
      <path id="Path_60222" data-name="Path 60222" d="M402.262,174.691a.369.369,0,0,0,.26-.1l.709-.709a.37.37,0,1,0-.524-.524l-.715.7a.37.37,0,0,0,.262.632Z" transform="translate(-396.112 -172.37)" fill="#006ef3"/>
      <path id="Path_60223" data-name="Path 60223" d="M427.82,257.088a.37.37,0,0,0,.349.389l.9.05h.021a.37.37,0,1,0,.021-.74l-.9-.05a.37.37,0,0,0-.391.351Z" transform="translate(-421.362 -253.651)" fill="#006ef3"/>
      <path id="Path_60224" data-name="Path 60224" d="M343.676,141.62h.021a.37.37,0,0,0,.349-.389l-.05-.9h0a.371.371,0,0,0-.74.041l.05.9a.37.37,0,0,0,.37.348Z" transform="translate(-339.033 -139.977)" fill="#006ef3"/>
    </g>
  </g>
</svg>
