<svg xmlns="http://www.w3.org/2000/svg" width="19.098" height="19.098" viewBox="0 0 19.098 19.098">
  <g id="Icon_feather-eye-off" data-name="Icon feather-eye-off" transform="translate(-0.369 -0.369)">
    <path id="Path_240" data-name="Path 240" d="M14.463,16.668a7.706,7.706,0,0,1-4.546,1.576c-5.357,0-8.418-6.122-8.418-6.122A14.119,14.119,0,0,1,5.372,7.576M8.311,6.184A6.979,6.979,0,0,1,9.918,6c5.357,0,8.418,6.122,8.418,6.122a14.157,14.157,0,0,1-1.653,2.441m-5.143-.819A2.3,2.3,0,1,1,8.3,10.5" transform="translate(0 -2.204)" fill="none" stroke="#006ef3" stroke-linecap="round" stroke-linejoin="round" stroke-width="1.6"/>
    <path id="Path_241" data-name="Path 241" d="M1.5,1.5,18.336,18.336" transform="translate(0 0)" fill="none" stroke="#006ef3" stroke-linecap="round" stroke-linejoin="round" stroke-width="1.6"/>
  </g>
</svg>
