<svg xmlns="http://www.w3.org/2000/svg" width="32.484" height="32.484" viewBox="0 0 32.484 32.484">
  <g id="noun-information-2454095" transform="translate(-176.102 -106.1)">
    <path id="Path_60247" data-name="Path 60247" d="M192.344,106.4a15.943,15.943,0,1,0,11.272,4.669A15.941,15.941,0,0,0,192.344,106.4Zm0,30.855a14.912,14.912,0,1,1,10.546-4.368A14.916,14.916,0,0,1,192.344,137.255Z" fill="#fff" stroke="#fff" stroke-width="0.6"/>
    <path id="Path_60248" data-name="Path 60248" d="M326.3,169.842a2.571,2.571,0,1,0-1.818-.753A2.572,2.572,0,0,0,326.3,169.842Zm0-4.114a1.543,1.543,0,1,1-1.091.452A1.543,1.543,0,0,1,326.3,165.728Z" transform="translate(-133.799 -52.946)" fill="#fff" stroke="#fff" stroke-width="0.6"/>
    <path id="Path_60249" data-name="Path 60249" d="M319.329,239.543a2.252,2.252,0,0,0-1.028,1.851,2.187,2.187,0,0,0,1.543,1.851c-.242,1.028-.463,2.175-.643,3.379-.216,1.476-.345,2.859-.411,4.114h0a3.044,3.044,0,0,0,1.2,2.191,2.506,2.506,0,0,0,2.767.242,2.283,2.283,0,0,0,.925-1.543,2.633,2.633,0,0,0-.622-2.057c.067-1,.17-2.057.319-3.173.17-1.219.376-2.36.6-3.42h0a3.421,3.421,0,0,0-.761-2.921,3.306,3.306,0,0,0-3.888-.514Zm3.641,3.25c-.247,1.142-.453,2.319-.612,3.487-.144,1.065-.257,2.16-.329,3.245l-.026.416.273.319h0a1.622,1.622,0,0,1,.386,1.229,1.36,1.36,0,0,1-.458.849.843.843,0,0,1-.514.133,2.055,2.055,0,0,1-1.085-.37,2,2,0,0,1-.761-1.373c.072-1.316.206-2.648.4-3.949.165-1.106.376-2.211.627-3.3l.211-.915-.89-.293h0a1.188,1.188,0,0,1-.843-.931c-.031-.489.473-.874.576-.951a1.873,1.873,0,0,1,.941-.211,2.28,2.28,0,0,1,1.61.622,2.423,2.423,0,0,1,.494,1.99Z" transform="translate(-128.868 -120.544)" fill="#fff" stroke="#fff" stroke-width="0.6"/>
  </g>
</svg>
