<svg xmlns="http://www.w3.org/2000/svg" width="41" height="41" viewBox="0 0 41 41">
  <g id="Group_38163" data-name="Group 38163" transform="translate(0.176)">
    <g id="Group_37324" data-name="Group 37324" transform="translate(-0.176)">
      <rect id="Rectangle_2771" data-name="Rectangle 2771" width="41" height="41" rx="4" fill="#006ef3" opacity="0.04"/>
      <g id="Icon_feather-instagram" data-name="Icon feather-instagram" transform="translate(7 7)">
        <path id="Path_55029" data-name="Path 55029" d="M8.077,3H18.232a5.077,5.077,0,0,1,5.077,5.077V18.232a5.077,5.077,0,0,1-5.077,5.077H8.077A5.077,5.077,0,0,1,3,18.232V8.077A5.077,5.077,0,0,1,8.077,3Z" fill="none" stroke="#006ef3" stroke-linecap="round" stroke-linejoin="round" stroke-width="2"/>
        <path id="Path_55030" data-name="Path 55030" d="M20.144,15.4a4.062,4.062,0,1,1-3.422-3.422A4.062,4.062,0,0,1,20.144,15.4Z" transform="translate(-2.928 -2.886)" fill="none" stroke="#006ef3" stroke-linecap="round" stroke-linejoin="round" stroke-width="2"/>
        <path id="Path_55031" data-name="Path 55031" d="M26.25,9.75h0" transform="translate(-7.511 -2.181)" fill="none" stroke="#006ef3" stroke-linecap="round" stroke-linejoin="round" stroke-width="2"/>
      </g>
    </g>
  </g>
</svg>
