<svg id="Group_39049" data-name="Group 39049" xmlns="http://www.w3.org/2000/svg" width="17.185" height="13.764" viewBox="0 0 17.185 13.764">
  <path id="Path_59966" data-name="Path 59966" d="M1.5,12.411,3.028,9.35A8.042,8.042,0,0,1,1.5,7.271Zm.454,2.3a.717.717,0,0,0,.264.05H15.09a.717.717,0,0,0,.239-.041L13.107,10.28a8.022,8.022,0,0,1-8.937,0Zm13.857-2.244V7.212A8.041,8.041,0,0,1,14.248,9.35ZM2.063,3.892a6.58,6.58,0,0,0,13.149-.006.723.723,0,0,0-.122-.01H2.216A.721.721,0,0,0,2.063,3.892Zm.152-1.453H15.09a2.155,2.155,0,0,1,2.155,2.155v9.453A2.155,2.155,0,0,1,15.09,16.2H2.216A2.155,2.155,0,0,1,.061,14.047V4.594A2.155,2.155,0,0,1,2.216,2.439Z" transform="translate(-0.061 -2.439)" fill="#006ef3"/>
  <rect id="Rectangle_12430" data-name="Rectangle 12430" width="1.662" height="2.493" rx="0.831" transform="translate(7.762 3.724)" fill="#006ef3"/>
</svg>
