<svg xmlns="http://www.w3.org/2000/svg" width="21" height="20" viewBox="0 0 21 20">
  <g id="Group_22741" data-name="Group 22741" transform="translate(-0.263 -0.071)">
    <path id="Stroke_1" data-name="Stroke 1" d="M16.42,20H4.581A4.722,4.722,0,0,1,0,15.158V8.57A4.7,4.7,0,0,1,4.528,3.73l.082,0a.225.225,0,0,0,.173-.132L5.3,2.442l.4-.877A2.54,2.54,0,0,1,8.029,0h4.942A2.537,2.537,0,0,1,15.3,1.564c.061.126.134.283.246.526l.676,1.5a.233.233,0,0,0,.222.136l.222.006A4.73,4.73,0,0,1,21,8.57v6.588A4.722,4.722,0,0,1,16.42,20ZM8.04,1.665a.977.977,0,0,0-.933.655c-.063.131-.14.3-.235.5L6.207,4.305A1.818,1.818,0,0,1,4.76,5.383l-.179.01A3.1,3.1,0,0,0,1.575,8.57v6.588a3.1,3.1,0,0,0,3.006,3.177H16.42a3.1,3.1,0,0,0,3.005-3.177V8.57A3.1,3.1,0,0,0,16.6,5.4l-.34-.012A1.811,1.811,0,0,1,14.794,4.3l-.733-1.628-.168-.357a.972.972,0,0,0-.927-.654Z" transform="translate(0.263 0.071)" fill="#242424"/>
    <path id="Stroke_3" data-name="Stroke 3" d="M4.283,8.565h0A4.291,4.291,0,0,1,0,4.287,4.208,4.208,0,0,1,1.239,1.274,4.259,4.259,0,0,1,4.281,0l.225.006a4.283,4.283,0,0,1-.223,8.56Zm0-6.932-.174.006A2.669,2.669,0,0,0,1.635,4.281,2.644,2.644,0,1,0,4.284,1.633Z" transform="translate(6.687 6.939)" fill="#242424"/>
    <path id="Fill_5" data-name="Fill 5" d="M1.354,2.993a1.627,1.627,0,0,1-.448-.117,1.512,1.512,0,0,1-.482-.332A1.531,1.531,0,0,1,0,1.5,1.457,1.457,0,0,1,.123.91,1.526,1.526,0,0,1,.477.4,1.716,1.716,0,0,1,.934.105,1.534,1.534,0,0,1,2.557.428,1.443,1.443,0,0,1,2.841.82l.034.088A1.461,1.461,0,0,1,3,1.5a1.524,1.524,0,0,1-.438,1.058,1.494,1.494,0,0,1-.913.434L1.5,3Z" transform="translate(15.263 7.071)" fill="#242424"/>
  </g>
</svg>
