<svg xmlns="http://www.w3.org/2000/svg" width="24.432" height="16.629" viewBox="0 0 24.432 16.629">
  <g id="Group_40057" data-name="Group 40057" transform="translate(604 -1586.186)">
    <path id="Path_27869" data-name="Path 27869" d="M77.688,381H54.744a.946.946,0,0,0,0,1.848H77.688a.946.946,0,0,0,0-1.848Zm0,0" transform="translate(-658 1212.576)" fill="#006ef3"/>
    <path id="Path_27871" data-name="Path 27871" d="M126.256,501H114.924a.924.924,0,0,0,0,1.848h11.332a.924.924,0,0,0,0-1.848Zm0,0" transform="translate(-718 1099.967)" fill="#242424"/>
    <path id="Path_54942" data-name="Path 54942" d="M126.256,501H114.924a.924.924,0,0,0,0,1.848h11.332a.924.924,0,0,0,0-1.848Zm0,0" transform="translate(-707 1085.186)" fill="#242424"/>
  </g>
</svg>
