<svg xmlns="http://www.w3.org/2000/svg" width="14" height="20.623" viewBox="0 0 14 20.623">
  <g id="Group_16615" data-name="Group 16615" transform="translate(-269 571)">
    <path id="Path_28414" data-name="Path 28414" d="M280-571h-8a2.91,2.91,0,0,0-3,2.812v15a2.91,2.91,0,0,0,3,2.812h8a2.911,2.911,0,0,0,3-2.812v-15A2.91,2.91,0,0,0,280-571Zm1,17.81a.971.971,0,0,1-1,.937h-8a.971.971,0,0,1-1-.937v-15a.971.971,0,0,1,1-.937h8a.971.971,0,0,1,1,.937Z" fill="#006ef3"/>
    <g id="Group_16614" data-name="Group 16614" transform="translate(274.264 -556.002)">
      <circle id="Ellipse_23" data-name="Ellipse 23" cx="1" cy="1" r="1" transform="translate(0.736)" fill="#006ef3"/>
    </g>
  </g>
</svg>
