<svg width="22" height="24" viewBox="0 0 22 24" fill="none" xmlns="http://www.w3.org/2000/svg">
<path d="M11.2513 13C11.746 13 12.147 12.5523 12.147 12C12.147 11.4477 11.746 11 11.2513 11C10.7566 11 10.3556 11.4477 10.3556 12C10.3556 12.5523 10.7566 13 11.2513 13Z" stroke="black" stroke-width="2" stroke-linecap="round" stroke-linejoin="round"/>
<path d="M11.2513 6C11.746 6 12.147 5.55228 12.147 5C12.147 4.44772 11.746 4 11.2513 4C10.7566 4 10.3556 4.44772 10.3556 5C10.3556 5.55228 10.7566 6 11.2513 6Z" stroke="black" stroke-width="2" stroke-linecap="round" stroke-linejoin="round"/>
<path d="M11.2513 20C11.746 20 12.147 19.5523 12.147 19C12.147 18.4477 11.746 18 11.2513 18C10.7566 18 10.3556 18.4477 10.3556 19C10.3556 19.5523 10.7566 20 11.2513 20Z" stroke="black" stroke-width="2" stroke-linecap="round" stroke-linejoin="round"/>
</svg>
