<svg xmlns="http://www.w3.org/2000/svg" width="30.292" height="23.244" viewBox="0 0 30.292 23.244">
  <g id="noun-chat-2518709" transform="translate(-40.46 -45.816)">
    <path id="Path_60024" data-name="Path 60024" d="M52.557,45.816c-6.738,0-12.1,4.3-12.1,9.86,0,3.283,2.254,5.614,4.232,7.043v4.519a.691.691,0,0,0,.312.578l0,0a.69.69,0,0,0,.653.051l0,0a15.813,15.813,0,0,0,4.549-3.346,15.559,15.559,0,0,0,2.7.309,13.247,13.247,0,0,0,8.29-2.5,8.274,8.274,0,0,0,3.2-6.652c0-5.633-5.147-9.858-11.849-9.858Zm0,1.378c6.023,0,10.471,3.662,10.471,8.48a6.874,6.874,0,0,1-2.752,5.611,11.937,11.937,0,0,1-7.365,2.168,15.931,15.931,0,0,1-2.816-.344h0a.693.693,0,0,0-.642.218v0a13.74,13.74,0,0,1-3.38,2.724V62.375a.691.691,0,0,0-.3-.567c-1.818-1.251-3.934-3.321-3.934-6.132,0-4.725,4.66-8.482,10.721-8.482Zm13.482,8.528a.689.689,0,0,0-.414,1.314h0a6.656,6.656,0,0,1,2.883,1.591,3.207,3.207,0,0,1,.868,2.338c0,1.629-1.561,3-2.523,3.663a.689.689,0,0,0-.3.567v2.155a4.93,4.93,0,0,1-1.617-1.2v0a.694.694,0,0,0-.645-.218h0c-.216.042-.427.1-.636.155h0a4.152,4.152,0,0,1-1,.186,6.368,6.368,0,0,1-4.176-1.278v0a.69.69,0,0,0-.819,1.112h0a7.806,7.806,0,0,0,4.992,1.545,5.068,5.068,0,0,0,1.354-.232h0l.2-.053a6.82,6.82,0,0,0,1.848,1.314,4.672,4.672,0,0,0,1.04.368h0a.7.7,0,0,0,.135.014.69.69,0,0,0,.689-.69V65.536c1.782-1.318,2.821-2.92,2.821-4.571a4.621,4.621,0,0,0-1.18-3.216,7.879,7.879,0,0,0-3.53-2.026l0,0Z" transform="translate(0 0)" fill="#006ef3"/>
  </g>
</svg>
