<svg xmlns="http://www.w3.org/2000/svg" width="18.709" height="25.105" viewBox="0 0 18.709 25.105">
  <g id="noun-book-851239" transform="translate(-163.053 -27.798)">
    <path id="Path_60246" data-name="Path 60246" d="M165.764,50.571h.686v1.7a.415.415,0,0,0,.631.355l1.6-.975,1.628.993a.415.415,0,0,0,.631-.354V50.571h8.109a2.514,2.514,0,0,0,2.511-2.511V30.509A2.514,2.514,0,0,0,179.051,28H165.764a2.514,2.514,0,0,0-2.511,2.511V48.06a2.513,2.513,0,0,0,2.511,2.51Zm4.348.978-1.212-.74a.414.414,0,0,0-.432,0l-1.188.723V48.612h2.832v2.936Zm10.619-3.488a1.682,1.682,0,0,1-1.68,1.68h-8.109V48.612H179.2a2.351,2.351,0,0,0,1.533-.568Zm-13.9-19.232h12.223a1.682,1.682,0,0,1,1.68,1.68V43.991a1.535,1.535,0,0,1-1.533,1.533H166.828Zm-2.745,1.681a1.682,1.682,0,0,1,1.68-1.68H166v16.7h-.382a2.351,2.351,0,0,0-1.533.568Zm0,17.378a1.535,1.535,0,0,1,1.533-1.533H179.2a2.351,2.351,0,0,0,1.533-.568v.463a1.535,1.535,0,0,1-1.533,1.533H165.616a.415.415,0,1,0,0,.83h.833v1.129h-.686a1.682,1.682,0,0,1-1.68-1.68Z" fill="#006ef3" stroke="#006ef3" stroke-width="0.4"/>
  </g>
</svg>
