<svg xmlns="http://www.w3.org/2000/svg" width="19.891" height="19.891" viewBox="0 0 19.891 19.891">
  <g id="noun-information-2454095" transform="translate(-176.102 -106.1)">
    <path id="Path_60247" data-name="Path 60247" d="M186.048,106.4a9.646,9.646,0,1,0,6.82,2.825A9.645,9.645,0,0,0,186.048,106.4Zm0,18.669a9.023,9.023,0,1,1,6.381-2.643A9.025,9.025,0,0,1,186.048,125.069Z" fill="#006ef3" stroke="#006ef3" stroke-width="0.6"/>
    <path id="Path_60248" data-name="Path 60248" d="M325.286,167.811a1.556,1.556,0,1,0-1.1-.456A1.556,1.556,0,0,0,325.286,167.811Zm0-2.489a.933.933,0,1,1-.66.273A.934.934,0,0,1,325.286,165.322Z" transform="translate(-139.142 -55.06)" fill="#006ef3" stroke="#006ef3" stroke-width="0.6"/>
    <path id="Path_60249" data-name="Path 60249" d="M318.923,239.381a1.363,1.363,0,0,0-.622,1.12,1.323,1.323,0,0,0,.934,1.12c-.146.622-.28,1.316-.389,2.044-.131.893-.209,1.73-.249,2.489h0a1.842,1.842,0,0,0,.725,1.325,1.516,1.516,0,0,0,1.674.146,1.381,1.381,0,0,0,.56-.934,1.593,1.593,0,0,0-.376-1.244c.04-.6.1-1.244.193-1.92.1-.737.227-1.428.364-2.069h0a2.07,2.07,0,0,0-.461-1.767,2,2,0,0,0-2.352-.311Zm2.2,1.966c-.149.691-.274,1.4-.37,2.11-.087.644-.156,1.307-.2,1.963l-.016.252.165.193h0a.981.981,0,0,1,.233.744.823.823,0,0,1-.277.514.51.51,0,0,1-.311.081,1.244,1.244,0,0,1-.656-.224,1.212,1.212,0,0,1-.46-.831c.044-.8.124-1.6.243-2.39.1-.669.227-1.338.38-1.994l.128-.554-.538-.177h0a.719.719,0,0,1-.51-.563c-.019-.3.286-.529.349-.576a1.133,1.133,0,0,1,.569-.128,1.38,1.38,0,0,1,.974.377,1.466,1.466,0,0,1,.3,1.2Z" transform="translate(-134.015 -125.358)" fill="#006ef3" stroke="#006ef3" stroke-width="0.6"/>
  </g>
</svg>
