<svg xmlns="http://www.w3.org/2000/svg" width="29.899" height="17.38" viewBox="0 0 29.899 17.38">
  <g id="noun-video-camera-1363587" transform="translate(-100.548 -136.95)">
    <path id="Path_60239" data-name="Path 60239" d="M115.762,137.2H104.333a3.539,3.539,0,0,0-3.535,3.535v9.811a3.539,3.539,0,0,0,3.535,3.535h11.429a3.539,3.539,0,0,0,3.535-3.535v-9.811A3.538,3.538,0,0,0,115.762,137.2Zm2.742,13.312a2.735,2.735,0,0,1-2.742,2.742H104.333a2.735,2.735,0,0,1-2.742-2.742v-9.778a2.735,2.735,0,0,1,2.742-2.742h11.429a2.735,2.735,0,0,1,2.742,2.742Z" transform="translate(0)" fill="#006ef3" stroke="#006ef3" stroke-width="0.5"/>
    <path id="Path_60240" data-name="Path 60240" d="M448.449,142.3a1.3,1.3,0,0,0-1.156-.066L439.827,146a.406.406,0,0,0-.231.363v7.069a.364.364,0,0,0,.2.33l7.432,4.393a1.208,1.208,0,0,0,1.619-.4,1.237,1.237,0,0,0,.165-.594V143.289a1.123,1.123,0,0,0-.562-.991Zm-.231,14.832a.382.382,0,0,1-.4.4.467.467,0,0,1-.2-.066l-7.234-4.294V146.56l7.267-3.634a.385.385,0,0,1,.529.165.3.3,0,0,1,.033.165Z" transform="translate(-318.813 -4.636)" fill="#006ef3" stroke="#006ef3" stroke-width="0.5"/>
  </g>
</svg>
