<svg xmlns="http://www.w3.org/2000/svg" width="41" height="41" viewBox="0 0 41 41">
  <g id="Group_40025" data-name="Group 40025" transform="translate(-36 -132)">
    <rect id="Rectangle_11432" data-name="Rectangle 11432" width="41" height="41" rx="8" transform="translate(36 132)" fill="#006ef3" opacity="0.04"/>
    <path id="Icon_awesome-file-pdf" data-name="Icon awesome-file-pdf" d="M7.506,10.569a3.981,3.981,0,0,1-.083-1.935C7.771,8.633,7.738,10.156,7.506,10.569Zm-.07,1.948A19.042,19.042,0,0,1,6.264,15.1a15.2,15.2,0,0,1,2.6-.9A5.346,5.346,0,0,1,7.436,12.516Zm-3.883,5.15c0,.033.545-.223,1.44-1.659A5.7,5.7,0,0,0,3.553,17.666ZM10.234,6.6h5.612V20.138a.988.988,0,0,1-.99.99H.99a.988.988,0,0,1-.99-.99V.99A.988.988,0,0,1,.99,0H9.244V5.612A.993.993,0,0,0,10.234,6.6Zm-.33,7.09a4.142,4.142,0,0,1-1.762-2.22A5.932,5.932,0,0,0,8.4,8.823a1.034,1.034,0,0,0-1.973-.281A6.862,6.862,0,0,0,6.76,11.72a38.751,38.751,0,0,1-1.684,3.541s0,0-.008,0c-1.118.574-3.037,1.836-2.249,2.806a1.282,1.282,0,0,0,.887.413c.739,0,1.473-.743,2.521-2.55a23.523,23.523,0,0,1,3.26-.957,6.254,6.254,0,0,0,2.641.8,1.068,1.068,0,0,0,.813-1.791c-.574-.561-2.241-.4-3.037-.3Zm5.654-9.359L11.514.289a.99.99,0,0,0-.7-.289h-.248V5.282h5.282V5.03A.987.987,0,0,0,15.558,4.333ZM12.5,14.869c.169-.111-.1-.491-1.766-.371C12.265,15.149,12.5,14.869,12.5,14.869Z" transform="translate(48.54 141.899)" fill="#006ef3"/>
  </g>
</svg>
