<svg xmlns="http://www.w3.org/2000/svg" width="41" height="41" viewBox="0 0 41 41">
  <g id="Group_40041" data-name="Group 40041" transform="translate(-36 -132)">
    <rect id="Rectangle_11432" data-name="Rectangle 11432" width="41" height="41" rx="8" transform="translate(36 132)" fill="#006ef3" opacity="0.04"/>
    <g id="noun-image-1092999" transform="translate(-80 53.4)">
      <path id="Path_60287" data-name="Path 60287" d="M147.353,93.6a4,4,0,0,0-4-4H130a4,4,0,0,0-4,4v10.143a4,4,0,0,0,4,4h13.346a4,4,0,0,0,4-4ZM130,91.2h13.346a2.392,2.392,0,0,1,2.4,2.4v5.045l-2.109-1.815A3.444,3.444,0,0,0,139,96.94l-1.468,1.388-.934-1.174a3.463,3.463,0,0,0-4.484-.774L127.6,99.129V93.6a2.392,2.392,0,0,1,2.4-2.4Zm-2.4,12.545V101l5.312-3.23a1.891,1.891,0,0,1,2.429.427l6.459,7.954H130a2.392,2.392,0,0,1-2.4-2.4ZM143.83,106.1l-5.285-6.513,1.548-1.468a1.85,1.85,0,0,1,2.509-.053l3.149,2.723v2.963a2.4,2.4,0,0,1-1.922,2.349Z" fill="#006ef3"/>
    </g>
  </g>
</svg>
