<svg xmlns="http://www.w3.org/2000/svg" width="15.449" height="15.764" viewBox="0 0 15.449 15.764">
  <g id="Group_39983" data-name="Group 39983" transform="translate(-1592.73 -1593.823)">
    <path id="noun-support-4487497" d="M171.285,89.507a7.536,7.536,0,0,0-.2-1.717l0-.017a7.666,7.666,0,0,0-7.433-5.893h-.181a7.666,7.666,0,0,0-7.433,5.893l0,.018a7.611,7.611,0,0,0-.2,1.716,7.527,7.527,0,0,0,.386,2.414,1.632,1.632,0,0,0,1.561,1.113,1.709,1.709,0,0,0,.532-.085l.658-.227a1.643,1.643,0,0,0,1.117-1.746l-.24-2.049a1.676,1.676,0,0,0-1.525-1.454L157.3,87.4a6.554,6.554,0,0,1,6.169-4.407h.09c.017,0,.059,0,.09,0A6.554,6.554,0,0,1,169.82,87.4l-1.031.072a1.677,1.677,0,0,0-1.519,1.458l-.239,2.052a1.639,1.639,0,0,0,1.112,1.737l.672.231a1.629,1.629,0,0,0,.313.05,6.465,6.465,0,0,1-4.638,2.952,1.048,1.048,0,0,0-.841-.443,1.067,1.067,0,1,0,.936,1.549,7.575,7.575,0,0,0,6.221-4.959,1.492,1.492,0,0,0,.091-.175,7.526,7.526,0,0,0,.389-2.419Zm-13.046-.924a.555.555,0,0,1,.5.478l.239,2.038a.536.536,0,0,1-.368.569l-.655.226a.539.539,0,0,1-.681-.324,6.422,6.422,0,0,1-.33-2.063,6.528,6.528,0,0,1,.079-1.008ZM169.169,91.9l-.669-.23a.532.532,0,0,1-.362-.56l.238-2.04a.556.556,0,0,1,.5-.482l1.217-.085a6.524,6.524,0,0,1,.079,1.008,6.43,6.43,0,0,1-.311,1.981c0,.007-.008.012-.01.019-.018.057-.048.108-.068.165a.537.537,0,0,1-.613.224Z" transform="translate(1436.895 1511.943)" fill="#006ef3"/>
    <path id="noun-support-4487497-2" data-name="noun-support-4487497" d="M173.3,91.3a.556.556,0,0,1-.373-.693,1.948,1.948,0,0,1,3.814.559,1.9,1.9,0,0,1-.607,1.412L176,92.7c-.175.156-.641.569-.647.735h0a.567.567,0,0,1-.557.546h-.011a.547.547,0,0,1-.546-.546c0-.661.567-1.164,1.021-1.568l.129-.116a.78.78,0,0,0,.24-.585.835.835,0,0,0-1.634-.239.553.553,0,0,1-.693.374Zm1.89,3.28a.556.556,0,0,1,.156.389.635.635,0,0,1-.034.212.778.778,0,0,1-.122.189A1.1,1.1,0,0,1,175,95.5a.655.655,0,0,1-.212.033.7.7,0,0,1-.211-.033.972.972,0,0,1-.178-.122.552.552,0,0,1-.123-.189.671.671,0,0,1-.045-.212.567.567,0,0,1,.168-.389.583.583,0,0,1,.791,0Z" transform="translate(1425.631 1507.098)" fill="#006ef3"/>
  </g>
</svg>
