<svg xmlns="http://www.w3.org/2000/svg" width="12.45" height="16.6" viewBox="0 0 12.45 16.6">
  <g id="Group_39986" data-name="Group 39986" transform="translate(-1883.069 -1492)">
    <path id="Path_60226" data-name="Path 60226" d="M227.7,104.618l-3.475-3.476a1.2,1.2,0,0,0-.841-.342h-6.225a1.556,1.556,0,0,0-1.556,1.556v13.487a1.556,1.556,0,0,0,1.556,1.556h9.337a1.556,1.556,0,0,0,1.556-1.556V105.469a1.214,1.214,0,0,0-.352-.851Zm-3.8-2.334,2.666,2.666h-1.805a.871.871,0,0,1-.861-.871Zm3.112,13.56a.519.519,0,0,1-.519.519h-9.337a.519.519,0,0,1-.519-.519V102.357a.519.519,0,0,1,.519-.519h5.706v2.241a1.9,1.9,0,0,0,1.9,1.909h2.251Z" transform="translate(1667.469 1391.2)" fill="#006ef3"/>
    <g id="Group_39986-2" data-name="Group 39986" transform="translate(1886.182 1499.262)">
      <path id="Path_60225" data-name="Path 60225" d="M282.8,347.2h4.15v1.037H282.8Z" transform="translate(-282.8 -343.05)" fill="#006ef3"/>
      <path id="Path_60227" data-name="Path 60227" d="M282.8,257.6h6.225v1.037H282.8Z" transform="translate(-282.8 -257.6)" fill="#006ef3"/>
      <path id="Path_60228" data-name="Path 60228" d="M282.8,302.4h6.225v1.037H282.8Z" transform="translate(-282.8 -300.325)" fill="#006ef3"/>
    </g>
  </g>
</svg>
