<svg xmlns="http://www.w3.org/2000/svg" width="50.93" height="52.951" viewBox="0 0 50.93 52.951">
  <g id="Group_40039" data-name="Group 40039" transform="translate(-4.082 -9.783)">
    <g id="Group_37991" data-name="Group 37991" transform="translate(4.082 9.783)">
      <path id="Path_54837" data-name="Path 54837" d="M44.416,49.723a6.505,6.505,0,1,1-6.505,6.506A6.505,6.505,0,0,1,44.416,49.723Zm-15.408-7.48a3.353,3.353,0,1,1-1.227,4.579,3.353,3.353,0,0,1,1.227-4.579ZM27.839,25.264a3.707,3.707,0,1,1-1.981,4.855A3.707,3.707,0,0,1,27.839,25.264Zm10.8-13.224A4.111,4.111,0,1,1,35.9,17.17a4.11,4.11,0,0,1,2.735-5.13ZM55.314,9.886a4.549,4.549,0,1,1-3.488,5.4A4.55,4.55,0,0,1,55.314,9.886Zm13.1,9.861a5.013,5.013,0,1,1-4.243,5.68A5.014,5.014,0,0,1,68.41,19.747Zm2.111,15.9a5.5,5.5,0,1,1-5,5.955,5.5,5.5,0,0,1,5-5.955ZM60.566,48.135a6,6,0,1,1-5.751,6.23,6,6,0,0,1,5.751-6.23Z" transform="translate(-25.567 -9.783)" fill="#006ef3" fill-rule="evenodd"/>
    </g>
  </g>
</svg>
